<svg data-name="Layer 2" xmlns="http://www.w3.org/2000/svg" viewBox="0 0 132.5 111.63"><g data-name="Layer 1"><path d="M88.16 31.57c0 10.44-4.33 20.13-11.62 27.02 18.72 9.46 30.99 28.78 30.99 50.5v2.54h24.97c0-17.69-12.15-32.53-28.56-36.65 0 0-.21-.05-.37-.11-.57-.18-.99-.76-.99-1.4s.38-1.16.93-1.39c8.15-3.43 13.88-11.49 13.88-20.89 0-12.52-10.15-22.67-22.67-22.67-2.3 0-4.53.35-6.62.99.04.69.06 1.37.06 2.07z" style="fill:#cede54"/><path d="M101.91 111.59H0v-2.5C0 86.13 15.24 66.13 37.23 60a31.493 31.493 0 0 1-17.85-28.43C19.38 14.16 33.54 0 50.95 0s31.58 14.16 31.58 31.57A31.51 31.51 0 0 1 64.68 60c21.97 6.11 37.23 26.11 37.23 49.09v2.5zm-96.84-5h91.77c-1.08-20.05-15.02-37.15-34.66-42.08-.04 0-.38-.1-.64-.19-1.76-.54-3-2.26-3-4.17 0-1.79 1.07-3.39 2.71-4.09a26.505 26.505 0 0 0 16.28-24.49C77.53 16.92 65.61 5 50.95 5S24.38 16.92 24.38 31.57c0 10.72 6.39 20.34 16.28 24.49 1.65.69 2.72 2.29 2.72 4.09 0 1.91-1.25 3.63-3.03 4.18-.23.07-.58.17-.58.17a45.897 45.897 0 0 0-34.7 42.09z" style="fill:#242d3c"/></g></svg>