<svg id="Layer_2" data-name="Layer 2" xmlns="http://www.w3.org/2000/svg" viewBox="0 0 107.02 111.67"><defs><style>.cls-1{fill:#c485f0}.cls-2{fill:#3dace2}.cls-3{fill:none;stroke:#403e3e;stroke-miterlimit:10;stroke-width:4.65px}</style></defs><g id="Layer_1-2" data-name="Layer 1"><path class="cls-1" d="M107.02 37.22c0 5.12-4.19 9.31-9.31 9.31H60.49c-5.12 0-9.31-4.19-9.31-9.31s4.19-9.31 9.31-9.31h37.22c5.12 0 9.31 4.19 9.31 9.31zM60.49 55.83v-9.3h9.3l-9.3 9.3z"/><path class="cls-2" d="M55.83 74.45c0 5.12-4.19 9.31-9.31 9.31H9.31C4.19 83.76 0 79.57 0 74.45s4.19-9.31 9.31-9.31h37.22c5.12 0 9.31 4.19 9.31 9.31z"/><path class="cls-2" d="M9.31 93.06v-9.31h9.3l-9.3 9.31z"/><g><path class="cls-3" d="M51.18 11.63h4.65M46.53 100.04h13.96M20.94 20.94h65.14M20.94 90.73h65.14M20.94 60.49V11.63c0-5.12 4.19-9.31 9.31-9.31h46.53c5.12 0 9.31 4.19 9.31 9.31v11.63M86.08 51.18v48.85c0 5.12-4.19 9.31-9.31 9.31H30.24c-5.12 0-9.31-4.19-9.31-9.31V88.4"/></g></g></svg>