<svg xmlns="http://www.w3.org/2000/svg" viewBox="0 0 92.52 126.1"><path fill="#242d3c" d="M52.67 91.04H39.85V58.62h4.34v28.07h4.13V58.62h4.35v32.42z"/><path d="M72.53 81.52H19.99v-5.43c0-2.36.9-4.71 2.7-6.51 1.8-1.8 4.16-2.7 6.51-2.7h34.12c2.36 0 4.71.9 6.51 2.7 1.8 1.8 2.7 4.16 2.7 6.51v5.43z" fill="#3dace2"/><path fill="#242d3c" d="M44.08 88.87h4.35v21.41h-4.35z"/><path d="M74.7 110.27h-4.35c0-1.88-.73-3.64-2.06-4.97a6.974 6.974 0 0 0-4.97-2.06H29.19c-1.88 0-3.65.73-4.97 2.06a6.974 6.974 0 0 0-2.06 4.97h-4.35c0-3.04 1.18-5.9 3.33-8.05s5.01-3.33 8.05-3.33h34.12c3.04 0 5.9 1.18 8.05 3.33s3.33 5.01 3.33 8.05zM46.26 126.1c-3.53 0-6.41-2.88-6.41-6.41s2.88-6.41 6.41-6.41 6.41 2.88 6.41 6.41-2.88 6.41-6.41 6.41zm0-8.47c-1.14 0-2.06.92-2.06 2.06s.93 2.06 2.06 2.06 2.06-.93 2.06-2.06-.92-2.06-2.06-2.06zM19.99 126.1c-3.53 0-6.41-2.88-6.41-6.41s2.88-6.41 6.41-6.41 6.41 2.88 6.41 6.41-2.88 6.41-6.41 6.41zm0-8.47c-1.14 0-2.06.92-2.06 2.06s.93 2.06 2.06 2.06 2.06-.93 2.06-2.06-.92-2.06-2.06-2.06zM72.53 126.1c-3.53 0-6.41-2.88-6.41-6.41s2.87-6.41 6.41-6.41 6.41 2.88 6.41 6.41-2.88 6.41-6.41 6.41zm0-8.47c-1.14 0-2.06.92-2.06 2.06s.92 2.06 2.06 2.06 2.06-.93 2.06-2.06-.93-2.06-2.06-2.06z" fill="#242d3c"/><path d="M66.02 10.43c-.3-2.2-1.36-4.31-3.17-5.89a9.482 9.482 0 0 0-6.26-2.35H35.92c-2.22 0-4.46.77-6.26 2.35a9.487 9.487 0 0 0-3.17 5.89l-6.06 44.95c-.11.79.12 1.62.68 2.26s1.35.98 2.15.98h46.01c.8 0 1.59-.33 2.15-.98.56-.64.79-1.47.68-2.26l-6.06-44.95h-.02z" fill="#3dace2"/><path fill="#242d3c" d="M44.08 45.62h4.35v4.35h-4.35zM44.08 36.92h4.35v4.35h-4.35zM44.08 28.23h4.35v4.35h-4.35zM44.08 19.53h4.35v4.35h-4.35zM44.08 10.84h4.35v4.35h-4.35zM74.7 83.69H17.81v-7.61c0-3.04 1.18-5.9 3.33-8.05s5.01-3.33 8.05-3.33h34.12c3.04 0 5.9 1.18 8.05 3.33s3.33 5.01 3.33 8.05v7.61zm-52.54-4.35h48.19v-3.26c0-1.88-.73-3.65-2.06-4.97a6.99 6.99 0 0 0-4.97-2.06H29.19c-1.88 0-3.65.73-4.97 2.06a6.974 6.974 0 0 0-2.06 4.97v3.26z"/><path d="M69.26 60.79H23.25c-1.45 0-2.83-.63-3.79-1.72a5.05 5.05 0 0 1-1.2-3.99l6.06-44.95c.38-2.81 1.76-5.38 3.89-7.24C30.34 1.03 33.08 0 35.91 0h20.67a11.692 11.692 0 0 1 11.58 10.13l6.06 44.95c.19 1.44-.24 2.89-1.2 3.98s-2.34 1.72-3.79 1.72h.03zM35.92 4.36a7.329 7.329 0 0 0-7.27 6.36l-6.06 44.95c-.02.12-.02.34.16.54s.4.23.51.23h46.01c.12 0 .34-.03.52-.23s.18-.42.16-.54l-6.06-44.95c-.24-1.76-1.11-3.38-2.45-4.55s-3.05-1.81-4.83-1.81H35.92zM75.36 78.53h-3.77v-4.35h3.77c1.88 0 3.64-.73 4.97-2.06a6.99 6.99 0 0 0 2.06-4.97V53.99h4.35v13.16c0 3.04-1.18 5.9-3.33 8.05s-5.01 3.33-8.05 3.33z" fill="#242d3c"/><path d="M92.51 55.85H76.62v-4.47c0-4.38 3.57-7.95 7.95-7.95s7.95 3.56 7.95 7.95v4.47zm-12.17-3.72h8.45v-.75c0-2.33-1.9-4.23-4.23-4.23s-4.23 1.9-4.23 4.23v.75h.01zM20.93 78.53h-3.77c-3.04 0-5.9-1.18-8.05-3.33a11.308 11.308 0 0 1-3.33-8.05V53.99h4.35v13.16c0 1.88.73 3.65 2.06 4.97a6.99 6.99 0 0 0 4.97 2.06h3.77v4.35z" fill="#242d3c"/><path d="M15.89 55.85H0v-4.47c0-4.38 3.57-7.95 7.95-7.95s7.95 3.56 7.95 7.95v4.47zM3.72 52.13h8.45v-.75c0-2.33-1.9-4.23-4.23-4.23s-4.23 1.9-4.23 4.23v.75z" fill="#242d3c"/></svg>