<svg id="Layer_2" data-name="Layer 2" xmlns="http://www.w3.org/2000/svg" viewBox="0 0 154.12 108.65"><defs><style>.cls-1{fill:#242d3c}.cls-2{fill:#cede54}.cls-3{fill:#c485f0}.cls-4{fill:#3dace2}</style></defs><g id="Layer_1-2" data-name="Layer 1"><path class="cls-1" d="M96.3 108.65H65.08V96.16h5v7.49H91.3v-7.49h5v12.49z"/><path class="cls-1" d="M59.19 103.65h43v5h-43zM138.07 48.86h-5V6.37c0-.36-.15-.71-.41-.97-.34-.35-.75-.4-.96-.4H29.69c-.26 0-.64.07-.98.4-.25.25-.39.6-.39.97v33.42h-5V6.37c0-1.7.66-3.3 1.86-4.5A6.372 6.372 0 0 1 29.7 0h102c1.71 0 3.31.66 4.51 1.87a6.367 6.367 0 0 1 1.87 4.5v42.49z"/><path class="cls-2" d="M119.51 52.95c0-2.25 1.84-4.09 4.09-4.09h2.97V37.01h-18.58v30.87h11.52V52.95zM83.6 37.01h18.58v30.87H83.6zM59.21 37.01h18.58v30.87H59.21zM34.82 11.54h91.75v19.41H34.82z"/><path class="cls-1" d="M122.01 92.25H50.9v-5h66.11v-7.9H50.9v-5h71.11v17.9z"/><g><path class="cls-1" d="M129.83 95.65h11.46v5h-11.46z"/><path class="cls-1" d="M147.53 108.65H123.6c-3.63 0-6.59-2.95-6.59-6.58V52.95c0-3.63 2.96-6.59 6.59-6.59h23.93c3.63 0 6.59 2.96 6.59 6.59v49.12c0 3.63-2.96 6.58-6.59 6.58zM123.6 51.36c-.86 0-1.59.73-1.59 1.59v49.12c0 .86.73 1.58 1.59 1.58h23.93c.87 0 1.59-.71 1.59-1.58V52.95c0-.88-.71-1.59-1.59-1.59H123.6z"/><g><path class="cls-3" d="M126.51 55.86h18.11v15.01h-18.11zM126.51 85.01h18.11v6.14h-18.11zM126.51 74.87h18.11v6.14h-18.11z"/></g></g><g><path class="cls-1" d="M18.88 95.65h15.63v5H18.88z"/><path class="cls-1" d="M44.74 108.65H8.66c-4.78 0-8.66-3.88-8.66-8.66V45.95c0-4.78 3.89-8.67 8.66-8.67h36.07c4.78 0 8.66 3.89 8.66 8.67v54.04c0 4.77-3.89 8.66-8.66 8.66zM8.66 42.29C6.64 42.29 5 43.93 5 45.96V100c0 2.02 1.64 3.66 3.66 3.66h36.07c2.02 0 3.66-1.64 3.66-3.66V45.96a3.67 3.67 0 0 0-3.66-3.67H8.66z"/><g><path class="cls-4" d="M28.7 67.42h14.2v22.73H28.7zM10.5 67.42h14.2v22.73H10.5zM10.5 47.79h32.4v15.62H10.5z"/></g></g></g></svg>