<svg id="Layer_2" data-name="Layer 2" xmlns="http://www.w3.org/2000/svg" viewBox="0 0 89.61 108.7"><defs><style>.cls-1{fill:#242d3c}</style></defs><g id="Layer_1-2" data-name="Layer 1"><path style="fill:#cede54" d="M2.17 2.17h13.91v104.35H2.17z"/><path class="cls-1" d="M30.43 108.7H0V0h30.43v108.7zm-26.08-4.35h21.74v-100H4.35v100z"/><path class="cls-1" d="M19.56 95.65h8.7V100h-8.7zM19.56 86.96h8.7v4.35h-8.7zM19.56 78.26h8.7v4.35h-8.7zM19.56 69.57h8.7v4.35h-8.7zM19.56 60.87h8.7v4.35h-8.7zM19.56 52.17h8.7v4.35h-8.7zM19.56 43.48h8.7v4.35h-8.7zM19.56 34.78h8.7v4.35h-8.7zM19.56 26.09h8.7v4.35h-8.7zM19.56 17.39h8.7v4.35h-8.7zM19.56 8.7h8.7v4.35h-8.7z"/><g><path style="fill:#c485f0" d="m48.71 29.32-9.14-9.14-.01 68.06h18.28l.01-68.06-9.14 9.14z"/><path class="cls-1" d="M44.13 12.26h9.15L48.7 4.35l-4.57 7.91zM46.53 29.32h4.35v58.93h-4.35z"/><path class="cls-1" d="M55.96 21.26 48.71 8.69l-7.26 12.57-3.77-2.17L48.7 0l11.03 19.09-3.77 2.17z"/><path class="cls-1" d="M57.84 90.42H39.56c-.58 0-1.13-.23-1.54-.64-.41-.41-.64-.96-.64-1.54V20.18c0-.88.53-1.67 1.34-2.01.82-.34 1.75-.15 2.37.47l7.6 7.6 7.6-7.6A2.172 2.172 0 0 1 60 20.18v68.07c0 1.2-.97 2.17-2.17 2.17zm-16.1-4.35h13.93V25.42l-5.43 5.43c-.85.85-2.22.85-3.07 0l-5.43-5.43v60.64z"/><path class="cls-1" d="M57.84 97.94H39.56c-1.2 0-2.17-.97-2.17-2.17v-7.52c0-1.2.97-2.17 2.17-2.17h18.28c.58 0 1.13.23 1.54.64.41.41.64.96.64 1.54v7.52c0 1.2-.98 2.17-2.18 2.17zm-16.1-4.35h13.93v-3.18H41.74v3.18z"/><path class="cls-1" d="M48.7 108.7c-3.02 0-5.86-1.18-8-3.31a11.232 11.232 0 0 1-3.31-8V86.08h22.63v11.31c0 3.02-1.18 5.86-3.31 8a11.232 11.232 0 0 1-8 3.31zm-6.96-18.28v6.96c0 1.86.73 3.61 2.04 4.93a6.94 6.94 0 0 0 4.92 2.04v2.17-2.17c1.87 0 3.61-.72 4.93-2.04a6.915 6.915 0 0 0 2.04-4.92v-6.97H41.74z"/></g><g><path style="fill:#3dace2" d="m69.15 10.76 5.38-5.37 5.37 5.37v85.01H69.15V10.76z"/><path class="cls-1" d="M89.61 97.94H69.15v-4.35h16.11V53.27h4.35v44.67z"/><path class="cls-1" d="M82.08 108.7h-15.1V9.86l7.55-7.55 7.55 7.55v98.83zm-10.76-4.35h6.41V11.66l-3.2-3.2-3.2 3.2v92.68z"/><path class="cls-1" d="M69.15 51.09H79.9v4.35H69.15zM72.35 0h4.35v5.39h-4.35z"/></g></g></svg>